<?xml version="1.0" encoding="UTF-8"?>
<svg width="292px" height="411px" viewBox="0 0 292 411" version="1.1" xmlns="http://www.w3.org/2000/svg" xmlns:xlink="http://www.w3.org/1999/xlink">
    <!-- Generator: Sketch 56.3 (81716) - https://sketch.com -->
    <title>编组</title>
    <desc>Created with Sketch.</desc>
    <defs>
        <linearGradient x1="50%" y1="0.599134291%" x2="53.8317141%" y2="92.5429249%" id="linearGradient-1">
            <stop stop-color="#B3D0F2" offset="0%"></stop>
            <stop stop-color="#8DB2DE" offset="100%"></stop>
        </linearGradient>
        <linearGradient x1="50.0400273%" y1="48.8171765%" x2="55.2294918%" y2="51.033342%" id="linearGradient-2">
            <stop stop-color="#7CA9DD" offset="0%"></stop>
            <stop stop-color="#8DB2DE" offset="100%"></stop>
        </linearGradient>
        <linearGradient x1="73.1066241%" y1="8.37713523%" x2="18.0700943%" y2="87.3689235%" id="linearGradient-3">
            <stop stop-color="#CFE4FA" offset="0%"></stop>
            <stop stop-color="#B2D0F4" offset="99.6674409%"></stop>
        </linearGradient>
        <linearGradient x1="56.7513412%" y1="0%" x2="50%" y2="100%" id="linearGradient-4">
            <stop stop-color="#BDD8F2" offset="0%"></stop>
            <stop stop-color="#B2D0F1" offset="100%"></stop>
        </linearGradient>
        <linearGradient x1="51.5338735%" y1="0%" x2="50%" y2="100%" id="linearGradient-5">
            <stop stop-color="#BDD8F2" offset="0%"></stop>
            <stop stop-color="#B2D0F1" offset="100%"></stop>
        </linearGradient>
        <linearGradient x1="55.3613083%" y1="0%" x2="50%" y2="100%" id="linearGradient-6">
            <stop stop-color="#BDD8F2" offset="0%"></stop>
            <stop stop-color="#B2D0F1" offset="100%"></stop>
        </linearGradient>
        <linearGradient x1="52.4534014%" y1="0%" x2="50%" y2="100%" id="linearGradient-7">
            <stop stop-color="#BDD8F2" offset="0%"></stop>
            <stop stop-color="#B2D0F1" offset="100%"></stop>
        </linearGradient>
        <linearGradient x1="53.7961316%" y1="0%" x2="50%" y2="100%" id="linearGradient-8">
            <stop stop-color="#BDD8F2" offset="0%"></stop>
            <stop stop-color="#B2D0F1" offset="100%"></stop>
        </linearGradient>
        <linearGradient x1="51.5701769%" y1="0%" x2="50%" y2="100%" id="linearGradient-9">
            <stop stop-color="#BDD8F2" offset="0%"></stop>
            <stop stop-color="#B2D0F1" offset="100%"></stop>
        </linearGradient>
        <linearGradient x1="52.6291143%" y1="0%" x2="50%" y2="100%" id="linearGradient-10">
            <stop stop-color="#BDD8F2" offset="0%"></stop>
            <stop stop-color="#B2D0F1" offset="100%"></stop>
        </linearGradient>
    </defs>
    <g id="Page-1" stroke="none" stroke-width="1" fill="none" fill-rule="evenodd">
        <g id="Icon" transform="translate(-108.000000, -56.000000)">
            <g id="编组" transform="translate(109.000000, 57.000000)">
                <path d="M101.625945,234.512894 C99.9308223,233.504298 102.473506,233 109.253997,233 C119.424734,233 191.89123,233 202.061967,233 C212.232703,233 212.232703,234.008596 212.232703,234.512894 C212.232703,235.017192 194.532628,240.952644 191.89123,254.180516 C190.130299,262.999097 191.274507,271.067865 195.323854,278.386819 C218.441285,309.462273 229.883363,334.340974 229.650089,353.022923 C229.416816,371.704871 218.101871,384.816619 195.705257,392.358166 C201.638186,394.375358 205.452212,396.224451 207.147335,397.905444 C208.842458,399.586437 204.604651,402.107927 194.433915,405.469914 C194.433915,405.806113 187.229643,406.646609 172.8211,407.991404 C158.412557,409.336199 143.580233,409.336199 128.324128,407.991404 C117.30583,406.310411 109.677778,404.797517 105.439971,403.452722 C99.0832609,401.43553 96.5405768,400.931232 97.8119189,397.905444 C98.6594802,395.888252 102.473506,393.87106 109.253997,391.853868 C89.0846658,374.617956 79,361 79,351 C79,336 81.6658748,327.808023 91.4552086,311.166189 C101.244542,294.524355 101.244542,297.045845 108.872595,283.934097 C116.500647,270.82235 121.967418,261.240688 120.696076,254.180516 C119.848514,249.473734 113.491804,242.917861 101.625945,234.512894 Z" id="路径-2" fill="url(#linearGradient-1)"></path>
                <path d="M229.650089,353.311797 C229.416816,371.993745 218.101871,385.105493 195.705257,392.64704 C201.638186,394.664232 205.452212,396.513325 207.147335,398.194318 C208.842458,399.875311 204.604651,402.396801 194.433915,405.758788 C194.433915,406.094987 187.229643,406.935483 172.8211,408.280278 C158.412557,409.625073 143.580233,409.625073 128.324128,408.280278 C117.30583,406.599285 109.677778,405.086391 105.439971,403.741596 C99.0832609,401.724404 96.5405768,401.220106 97.8119189,398.194318 C98.6594802,396.177126 102.473506,394.159934 109.253997,392.142742 C89.0846658,374.90683 79,361.288874 79,351.288874 C79,336.288874 81.6658748,328.096897 91.4552086,311.455063 C101.244542,294.813229 110.371948,280.111748 118,267 C120.20165,263.215616 145.99601,287.664007 160,297 C169,303 181.018766,304.061763 194,311 C222.605104,326.288915 229.821719,339.599677 229.650089,353.311797 Z" id="路径-2" fill-opacity="0.5" fill=""></path>
                <path d="M194.211173,392.504298 C200.144103,394.52149 203.958129,396.370583 205.653252,398.051576 C207.348374,399.732569 203.110568,402.254059 192.939831,405.616046 C192.939831,405.952245 185.73556,406.792741 171.327016,408.137536 C156.918473,409.48233 142.086149,409.48233 126.830045,408.137536 C115.811747,406.456543 108.183695,404.943649 103.945888,403.598854 C97.5891776,401.581662 95.0464935,401.077364 96.3178355,398.051576 C97.1653969,396.034384 100.979423,394.017192 107.759914,392 C121.919971,396 136.333333,398 151,398 C165.666667,398 180.070391,396.168099 194.211173,392.504298 Z" id="路径-2" fill="url(#linearGradient-2)"></path>
                <g id="tr" stroke="#979797">
                    <circle id="椭圆形" fill="url(#linearGradient-3)" cx="181.5" cy="166.5" r="21.5"></circle>
                    <circle id="椭圆形" fill="url(#linearGradient-3)" cx="105" cy="126" r="15"></circle>
                    <circle id="椭圆形" fill="url(#linearGradient-3)" cx="249" cy="164" r="15"></circle>
                    <circle id="椭圆形" fill="url(#linearGradient-3)" cx="279.5" cy="106.5" r="10.5"></circle>
                    <circle id="椭圆形" fill="url(#linearGradient-3)" cx="118.5" cy="61.5" r="10.5"></circle>
                    <circle id="椭圆形" fill="url(#linearGradient-3)" cx="144" cy="8" r="8"></circle>
                    <circle id="椭圆形" fill="url(#linearGradient-3)" cx="66" cy="89" r="8"></circle>
                    <circle id="椭圆形" fill="url(#linearGradient-3)" cx="75" cy="19" r="8"></circle>
                    <circle id="椭圆形" fill="url(#linearGradient-3)" cx="191.5" cy="73.5" r="22.5"></circle>
                    <circle id="椭圆形" fill="url(#linearGradient-3)" cx="50" cy="159" r="8"></circle>
                    <circle id="椭圆形" fill="url(#linearGradient-3)" cx="9" cy="199" r="8"></circle>
                    <circle id="椭圆形" fill="url(#linearGradient-3)" cx="8" cy="121" r="8"></circle>
                    <circle id="椭圆形" fill="url(#linearGradient-3)" cx="72" cy="238" r="8"></circle>
                    <circle id="椭圆形" fill="url(#linearGradient-3)" cx="98" cy="188" r="8"></circle>
                    <path d="M164.082116,193.595053 L162.993874,230.520463 L180.620309,227.094231 L180.112309,193.56977 C176.380342,194.657123 173.580576,195.20228 171.694206,195.20228 C169.819821,195.20228 167.287024,194.66512 164.082116,193.595053 Z" id="矩形" fill="url(#linearGradient-4)" transform="translate(171.801136, 212.017130) rotate(11.000000) translate(-171.801136, -212.017130) "></path>
                    <path d="M135.634897,123.795169 L135.634897,165.584287 C137.70152,165.331076 139.277574,165.204207 140.369324,165.204207 C141.44697,165.204207 142.867399,165.327664 144.634897,165.573888 L144.634897,123.833186 C142.935608,124.350748 141.560776,124.611146 140.500799,124.611146 C139.4187,124.611146 137.802183,124.338509 135.634897,123.795169 Z" id="矩形" fill="url(#linearGradient-5)" transform="translate(140.134897, 144.650854) rotate(-63.000000) translate(-140.134897, -144.650854) "></path>
                    <path d="M214.115066,156.083174 L214.115066,177.6376 C215.640941,177.164989 216.950474,176.927135 218.048399,176.927135 C219.186201,176.927135 220.870412,177.183943 223.115066,177.695872 L223.115066,155.951414 C220.460985,156.542734 218.603377,156.838777 217.518157,156.838777 C216.507008,156.838777 215.373585,156.585375 214.115066,156.083174 Z" id="矩形" fill="url(#linearGradient-6)" transform="translate(218.615066, 166.825773) rotate(86.000000) translate(-218.615066, -166.825773) "></path>
                    <path d="M260.968731,116.662915 L260.968731,149.277099 C262.48458,148.702049 263.773699,148.412126 264.843219,148.412126 C265.954459,148.412126 267.656279,148.72771 269.968731,149.356787 L269.968731,116.606295 C267.553466,117.008452 265.806287,117.209903 264.713573,117.209903 C263.668795,117.209903 262.42173,117.026916 260.968731,116.662915 Z" id="矩形" fill="url(#linearGradient-7)" transform="translate(265.468731, 133.014493) rotate(206.000000) translate(-265.468731, -133.014493) "></path>
                    <path d="M179.007512,99.905874 L179.007512,139.708622 C182.050674,138.973532 184.381665,138.604917 186.013096,138.604917 C187.644315,138.604917 189.971604,138.973426 193.007512,139.708292 L193.007512,99.9036346 C189.913202,100.234701 187.550721,100.400449 185.914573,100.400449 C184.281887,100.400449 181.98121,100.235435 179.007512,99.905874 Z" id="矩形" fill="url(#linearGradient-8)" transform="translate(186.007512, 119.846381) rotate(6.000000) translate(-186.007512, -119.846381) "></path>
                    <path d="M70.5,127.622793 L70.5,160.290209 C71.8620524,159.830231 73.0555831,159.5985 74.0844181,159.5985 C75.1729541,159.5985 76.9716148,159.860613 79.5,160.383922 L79.5,127.729832 C78.2514584,128.176761 77.056442,128.4015 75.9155819,128.4015 C74.6916258,128.4015 72.8907258,128.141403 70.5,127.622793 Z" id="矩形" fill="url(#linearGradient-7)" transform="translate(75.000000, 144.000000) rotate(57.000000) translate(-75.000000, -144.000000) "></path>
                    <path d="M26.3618644,163.105299 L26.3618644,195.513112 C27.492289,195.016972 28.475408,194.76592 29.3179979,194.76592 C30.2088333,194.76592 31.5493724,195.050077 33.3618644,195.615868 L33.3618644,163.021551 C31.6739637,163.631632 30.383281,163.938621 29.4696649,163.938621 C28.59317,163.938621 27.5600055,163.6586 26.3618644,163.105299 Z" id="矩形" fill="url(#linearGradient-9)" transform="translate(29.861864, 179.301194) rotate(46.000000) translate(-29.861864, -179.301194) "></path>
                    <rect id="矩形" fill="url(#linearGradient-9)" transform="translate(28.352902, 139.680169) rotate(132.000000) translate(-28.352902, -139.680169) " x="24.852902" y="123.180169" width="7" height="33"></rect>
                    <path d="M96.8424767,143.817274 L96.8424767,176.51153 C98.8791117,175.874165 100.480249,175.553761 101.65913,175.553761 C102.813224,175.553761 104.205382,175.859832 105.842477,176.467335 L105.842477,143.813964 C103.887746,144.214482 102.376014,144.415475 101.297785,144.415475 C100.222224,144.415475 98.7400809,144.215557 96.8424767,143.817274 Z" id="矩形" fill="url(#linearGradient-7)" transform="translate(101.342477, 160.197834) rotate(6.000000) translate(-101.342477, -160.197834) "></path>
                    <path d="M80.1552411,196.088822 L80.1552411,228.811422 C82.7087671,228.217863 84.5204656,227.920545 85.6129874,227.920545 C86.6416039,227.920545 87.8210228,228.180877 89.1552411,228.69698 L89.1552411,196.06399 C87.0351551,196.515813 85.4408519,196.742463 84.3595783,196.742463 C83.2960308,196.742463 81.897321,196.523851 80.1552411,196.088822 Z" id="矩形" fill="url(#linearGradient-7)" transform="translate(84.655241, 212.443260) rotate(28.000000) translate(-84.655241, -212.443260) "></path>
                    <path d="M127.143126,17.5806241 L127.143126,50.1913116 C129.413805,49.6862792 131.075133,49.4330724 132.14395,49.4330724 C133.183377,49.4330724 134.513698,49.6710928 136.143126,50.1442143 L136.143126,17.6134475 C134.52884,18.3438429 133.033465,18.6935479 131.656366,18.6559226 C130.287483,18.6185219 128.783632,18.25876 127.143126,17.5806241 Z" id="矩形" fill="url(#linearGradient-7)" transform="translate(131.643126, 33.817409) rotate(205.000000) translate(-131.643126, -33.817409) "></path>
                    <path d="M87.9694716,59.4825093 L87.9694716,92.309107 C89.6530136,92.0828776 90.9421322,91.969458 91.843398,91.969458 C92.7123413,91.969458 93.7535418,92.074587 94.9694716,92.2839525 L94.9694716,59.4724666 C93.3927388,59.7254931 92.1824599,59.8524328 91.3309119,59.8524328 C90.4897902,59.8524328 89.3712615,59.7287759 87.9694716,59.4825093 Z" id="矩形" fill="url(#linearGradient-9)" transform="translate(91.469472, 75.882948) rotate(62.000000) translate(-91.469472, -75.882948) "></path>
                    <path d="M92.3522657,23.3134998 L92.3522657,56.0283364 C94.1499086,55.4656339 95.4847049,55.1829791 96.3782788,55.1829791 C97.2248634,55.1829791 98.2139372,55.4336939 99.3522657,55.9292451 L99.3522657,23.2914408 C97.7078756,23.5211506 96.4365245,23.6363397 95.5319535,23.6363397 C94.6553226,23.6363397 93.5963253,23.5284207 92.3522657,23.3134998 Z" id="矩形" fill="url(#linearGradient-9)" transform="translate(95.852266, 39.714356) rotate(134.000000) translate(-95.852266, -39.714356) "></path>
                    <path d="M144.027251,50.6669917 L144.027251,83.3644759 C146.061391,82.8730301 147.639778,82.6262835 148.773485,82.6262835 C149.916403,82.6262835 151.484157,82.9833585 153.493197,83.6932778 L153.036015,50.6407024 C150.997645,51.1335573 149.416352,51.3810129 148.281018,51.3810129 C147.164238,51.3810129 145.74869,51.1421208 144.027251,50.6669917 Z" id="矩形" fill="url(#linearGradient-10)" transform="translate(148.765211, 67.207301) rotate(98.000000) translate(-148.765211, -67.207301) "></path>
                </g>
            </g>
        </g>
    </g>
</svg>